<svg width="1920" height="960" xmlns="http://www.w3.org/2000/svg" fill="none">
  <path id="svg_2" fill="#4513AE" d="m828,227.002l-41.5,-3.006l0,112.005l652.07144,647.1502l-478.57144,-23.1492l697.19,0l259.81,0l-780.5,-736.001l-48,-0.005l0,7.462l-9,-7.462l-15,0l-1.5,15.006l-15,-15.006l-19.21,0l-1.49,14.919l-15.03,-14.919l-16.973,0l3.477,33.816l-33.581,-33.816l-54.193,0l0,7.957l-7.889,-7.957l-16.394,0l0,17.903l-18.717,-17.903l-17.049,0l0,22.875l-22.951,-19.869z"/>
  <path id="svg_3" fill="white" d="m786.482,224l26.56,0c9.067,0 15.68,2.133 19.84,6.4c4.16,4.16 6.24,10.613 6.24,19.36l0,4.48c0,5.76 -0.96,10.453 -2.88,14.08c-1.813,3.627 -4.64,6.24 -8.48,7.84l0,0.32c8.747,2.987 13.12,10.773 13.12,23.36l0,9.6c0,8.64 -2.293,15.253 -6.88,19.84c-4.48,4.48 -11.093,6.72 -19.84,6.72l-27.68,0l0,-112zm24.48,45.6c3.52,0 6.133,-0.907 7.84,-2.72c1.813,-1.813 2.72,-4.853 2.72,-9.12l0,-6.24c0,-4.053 -0.747,-6.987 -2.24,-8.8c-1.387,-1.813 -3.627,-2.72 -6.72,-2.72l-8.48,0l0,29.6l6.88,0zm3.2,50.4c3.093,0 5.387,-0.8 6.88,-2.4c1.493,-1.707 2.24,-4.587 2.24,-8.64l0,-9.76c0,-5.12 -0.907,-8.64 -2.72,-10.56c-1.707,-2.027 -4.587,-3.04 -8.64,-3.04l-7.84,0l0,34.4l10.08,0zm62.607,17.6c-8.533,0 -15.04,-2.4 -19.52,-7.2c-4.48,-4.907 -6.72,-11.893 -6.72,-20.96l0,-85.44l17.6,0l0,86.72c0,3.84 0.747,6.613 2.24,8.32c1.6,1.707 3.84,2.56 6.72,2.56c2.88,0 5.067,-0.853 6.56,-2.56c1.6,-1.707 2.4,-4.48 2.4,-8.32l0,-86.72l16.96,0l0,85.44c0,9.067 -2.24,16.053 -6.72,20.96c-4.48,4.8 -10.986,7.2 -19.52,7.2zm52.535,-97.6l-18.4,0l0,-16l54.4,0l0,16l-18.4,0l0,96l-17.6,0l0,-96zm65.987,-16l16.959,0l7.84,86.08l0.32,0l8.32,-86.08l19.2,0l8.32,86.08l0.32,0l7.84,-86.08l15.2,0l-11.36,112l-21.92,0l-8,-75.52l-0.32,0l-8,75.52l-23.36,0l-11.359,-112zm93.219,0l48,0l0,16l-30.4,0l0,29.6l24.16,0l0,16l-24.16,0l0,34.4l30.4,0l0,16l-48,0l0,-112z"/>
</svg>