<svg width="1920" height="960" xmlns="http://www.w3.org/2000/svg" fill="none">
  <path d="m1561.50001,625.996l-700.50001,2.505l-45.5,-20.5l0,33.719l-27,-33.719l-23.5,0l-5.5,36l-23.5,-28c-1,-2.5 -6.604,-5.01 -22.5,-7c-15.896,-1.989 -22.175,11.667 -23.5,16.805l0,76.195l6,12.5l264,245.501l697.19,0l259.81,0l-356.49999,-334.001l1,-0.005z" fill="#4513AE" id="svg_2"/>
  <path d="m714.876,721.6c-8.427,0 -14.88,-2.4 -19.36,-7.2c-4.374,-4.8 -6.56,-11.573 -6.56,-20.32l0,-60.16c0,-8.747 2.186,-15.52 6.56,-20.32c4.48,-4.8 10.933,-7.2 19.36,-7.2c8.426,0 14.826,2.4 19.2,7.2c4.48,4.8 6.72,11.573 6.72,20.32l0,11.84l-16.64,0l0,-12.96c0,-6.933 -2.934,-10.4 -8.8,-10.4c-5.867,0 -8.8,3.467 -8.8,10.4l0,62.56c0,6.827 2.933,10.24 8.8,10.24c5.866,0 8.8,-3.413 8.8,-10.24l0,-17.12l16.64,0l0,15.84c0,8.747 -2.24,15.52 -6.72,20.32c-4.374,4.8 -10.774,7.2 -19.2,7.2zm50.05,-113.6l23.84,0l18.24,112l-17.6,0l-3.2,-22.24l0,0.32l-20,0l-3.2,21.92l-16.32,0l18.24,-112zm19.2,74.88l-7.84,-55.36l-0.32,0l-7.68,55.36l15.84,0zm31.418,-74.88l25.12,0l11.2,80.16l0.32,0l11.2,-80.16l25.12,0l0,112l-16.64,0l0,-84.8l-0.32,0l-12.8,84.8l-14.72,0l-12.8,-84.8l-0.32,0l0,84.8l-15.36,0l0,-112zm86.094,0l25.92,0c8.747,0 15.307,2.347 19.68,7.04c4.373,4.693 6.56,11.573 6.56,20.64l0,11.04c0,9.067 -2.187,15.947 -6.56,20.64c-4.373,4.693 -10.933,7.04 -19.68,7.04l-8.32,0l0,45.6l-17.6,0l0,-112zm25.92,50.4c2.88,0 5.013,-0.8 6.4,-2.4c1.493,-1.6 2.24,-4.32 2.24,-8.16l0,-13.28c0,-3.84 -0.747,-6.56 -2.24,-8.16c-1.387,-1.6 -3.52,-2.4 -6.4,-2.4l-8.32,0l0,34.4l8.32,0zm43.774,-50.4l23.84,0l18.238,112l-17.598,0l-3.2,-22.24l0,0.32l-20,0l-3.2,21.92l-16.32,0l18.24,-112zm19.2,74.88l-7.84,-55.36l-0.32,0l-7.68,55.36l15.84,0zm31.418,-74.88l17.6,0l0,112l-17.6,0l0,-112zm55.74,113.6c-8.53,0 -15.04,-2.4 -19.52,-7.2c-4.48,-4.907 -6.72,-11.893 -6.72,-20.96l0,-58.88c0,-9.067 2.24,-16 6.72,-20.8c4.48,-4.907 10.99,-7.36 19.52,-7.36c8.54,0 15.04,2.453 19.52,7.36c4.48,4.8 6.72,11.733 6.72,20.8l0,9.6l-16.64,0l0,-10.72c0,-7.36 -3.04,-11.04 -9.12,-11.04c-6.08,0 -9.12,3.68 -9.12,11.04l0,61.28c0,7.253 3.04,10.88 9.12,10.88c6.08,0 9.12,-3.627 9.12,-10.88l0,-21.92l-8.8,0l0,-16l25.44,0l0,36.64c0,9.067 -2.24,16.053 -6.72,20.96c-4.48,4.8 -10.98,7.2 -19.52,7.2zm37.54,-113.6l22.08,0l17.12,67.04l0.32,0l0,-67.04l15.68,0l0,112l-18.08,0l-21.12,-81.76l-0.32,0l0,81.76l-15.68,0l0,-112zm91.16,113.6c-8.53,0 -14.98,-2.4 -19.36,-7.2c-4.37,-4.907 -6.56,-11.893 -6.56,-20.96l0,-6.4l16.64,0l0,7.68c0,7.253 3.04,10.88 9.12,10.88c2.99,0 5.23,-0.853 6.72,-2.56c1.6,-1.813 2.4,-4.693 2.4,-8.64c0,-4.693 -1.06,-8.8 -3.2,-12.32c-2.13,-3.627 -6.08,-7.947 -11.84,-12.96c-7.25,-6.4 -12.32,-12.16 -15.2,-17.28c-2.88,-5.227 -4.32,-11.093 -4.32,-17.6c0,-8.853 2.24,-15.68 6.72,-20.48c4.48,-4.907 10.99,-7.36 19.52,-7.36c8.43,0 14.78,2.453 19.04,7.36c4.38,4.8 6.56,11.733 6.56,20.8l0,4.64l-16.64,0l0,-5.76c0,-3.84 -0.74,-6.613 -2.24,-8.32c-1.49,-1.813 -3.68,-2.72 -6.56,-2.72c-5.86,0 -8.8,3.573 -8.8,10.72c0,4.053 1.07,7.84 3.2,11.36c2.24,3.52 6.24,7.787 12,12.8c7.36,6.4 12.43,12.213 15.2,17.44c2.78,5.227 4.16,11.36 4.16,18.4c0,9.173 -2.29,16.213 -6.88,21.12c-4.48,4.907 -11.04,7.36 -19.68,7.36z" fill="#A1B1FD" id="svg_6"/>
</svg>