<svg width="1920" height="960" xmlns="http://www.w3.org/2000/svg" fill="none">
  <path id="svg_2" fill="#4513AE" d="m830,346.659l-26,9.13c-6.955,-1.989 -8.667,-0.498 -15.622,0c-11.358,0.812 -19.407,13.592 -23.878,23.87l-26.5,-23.87l-37,-1.288l0,111.5l435,403l676.00001,-5.5l-547.50001,-517.505"/>
  <path id="svg_4" fill="white" d="m697.81,352l26.88,0c8.747,0 15.307,2.347 19.68,7.04c4.373,4.693 6.56,11.573 6.56,20.64l0,56.64c0,9.067 -2.187,15.947 -6.56,20.64c-4.373,4.693 -10.933,7.04 -19.68,7.04l-26.88,0l0,-112zm26.56,96c2.88,0 5.067,-0.853 6.56,-2.56c1.6,-1.707 2.4,-4.48 2.4,-8.32l0,-58.24c0,-3.84 -0.8,-6.613 -2.4,-8.32c-1.493,-1.707 -3.68,-2.56 -6.56,-2.56l-8.96,0l0,80l8.96,0zm63.88,17.6c-8.64,0 -15.253,-2.453 -19.84,-7.36c-4.587,-4.907 -6.88,-11.84 -6.88,-20.8l0,-58.88c0,-8.96 2.293,-15.893 6.88,-20.8c4.587,-4.907 11.2,-7.36 19.84,-7.36c8.64,0 15.253,2.453 19.84,7.36c4.587,4.907 6.88,11.84 6.88,20.8l0,58.88c0,8.96 -2.293,15.893 -6.88,20.8c-4.587,4.907 -11.2,7.36 -19.84,7.36zm0,-16c6.08,0 9.12,-3.68 9.12,-11.04l0,-61.12c0,-7.36 -3.04,-11.04 -9.12,-11.04c-6.08,0 -9.12,3.68 -9.12,11.04l0,61.12c0,7.36 3.04,11.04 9.12,11.04zm38.623,-97.6l22.08,0l17.12,67.04l0.32,0l0,-67.04l15.68,0l0,112l-18.08,0l-21.12,-81.76l-0.32,0l0,81.76l-15.68,0l0,-112zm67.801,0l17.92,0l-4.32,36.16l-9.44,0l-4.16,-36.16zm45.959,16l-18.4,0l0,-16l54.4,0l0,16l-18.4,0l0,96l-17.6,0l0,-96zm74.307,96.64c-3.2,0 -5.92,-0.213 -8.16,-0.64l0,-16c1.71,0.427 3.63,0.64 5.76,0.64c3.52,0 6.13,-0.853 7.84,-2.56c1.71,-1.813 2.56,-4.533 2.56,-8.16l0,-85.92l17.6,0l0,85.44c0,9.173 -2.13,16 -6.4,20.48c-4.16,4.48 -10.56,6.72 -19.2,6.72zm63.78,0.96c-8.53,0 -15.04,-2.4 -19.52,-7.2c-4.48,-4.907 -6.72,-11.893 -6.72,-20.96l0,-85.44l17.6,0l0,86.72c0,3.84 0.75,6.613 2.24,8.32c1.6,1.707 3.84,2.56 6.72,2.56c2.88,0 5.07,-0.853 6.56,-2.56c1.6,-1.707 2.4,-4.48 2.4,-8.32l0,-86.72l16.96,0l0,85.44c0,9.067 -2.24,16.053 -6.72,20.96c-4.48,4.8 -10.98,7.2 -19.52,7.2zm61.66,0c-8.54,0 -14.99,-2.4 -19.36,-7.2c-4.38,-4.907 -6.56,-11.893 -6.56,-20.96l0,-6.4l16.64,0l0,7.68c0,7.253 3.04,10.88 9.12,10.88c2.98,0 5.22,-0.853 6.72,-2.56c1.6,-1.813 2.4,-4.693 2.4,-8.64c0,-4.693 -1.07,-8.8 -3.2,-12.32c-2.14,-3.627 -6.08,-7.947 -11.84,-12.96c-7.26,-6.4 -12.32,-12.16 -15.2,-17.28c-2.88,-5.227 -4.32,-11.093 -4.32,-17.6c0,-8.853 2.24,-15.68 6.72,-20.48c4.48,-4.907 10.98,-7.36 19.52,-7.36c8.42,0 14.77,2.453 19.04,7.36c4.37,4.8 6.56,11.733 6.56,20.8l0,4.64l-16.64,0l0,-5.76c0,-3.84 -0.75,-6.613 -2.24,-8.32c-1.5,-1.813 -3.68,-2.72 -6.56,-2.72c-5.87,0 -8.8,3.573 -8.8,10.72c0,4.053 1.06,7.84 3.2,11.36c2.24,3.52 6.24,7.787 12,12.8c7.36,6.4 12.42,12.213 15.2,17.44c2.77,5.227 4.16,11.36 4.16,18.4c0,9.173 -2.3,16.213 -6.88,21.12c-4.48,4.907 -11.04,7.36 -19.68,7.36zm50.41,-97.6l-18.4,0l0,-16l54.4,0l0,16l-18.4,0l0,96l-17.6,0l0,-96z"/>
</svg>