<svg width="1920" height="960" xmlns="http://www.w3.org/2000/svg" fill="none">
  <path stroke="null" id="svg_2" fill="#4513AE" d="m812.99999,604.001l484.5,-136.543"/>
  <path id="svg_5" fill="white" d="m829.216,480l25.12,0l11.2,80.16l0.32,0l11.2,-80.16l25.12,0l0,112l-16.64,0l0,-84.8l-0.32,0l-12.8,84.8l-14.72,0l-12.8,-84.8l-0.32,0l0,84.8l-15.36,0l0,-112zm99.694,0l23.84,0l18.24,112l-17.6,0l-3.2,-22.24l0,0.32l-20,0l-3.2,21.92l-16.32,0l18.24,-112zm19.2,74.88l-7.84,-55.36l-0.32,0l-7.68,55.36l15.84,0zm31.419,-74.88l17.6,0l0,47.2l22.401,-47.2l17.6,0l-20.96,41.12l21.28,70.88l-18.4,0l-14.88,-49.92l-7.041,14.24l0,35.68l-17.6,0l0,-112zm66.251,0l48,0l0,16l-30.4,0l0,29.6l24.16,0l0,16l-24.16,0l0,34.4l30.4,0l0,16l-48,0l0,-112z"/>
</svg>